# Aspose.3D Wavefront OBJ Exporter
# Copyright 2004-2023 Aspose Pty Ltd.
# File created: 08/27/2023 18:20:32

mtllib material.lib

#
# object Object_2
#

v -257.6834322751125228 -3.62596067464552528 259.63276790431280008
v -257.6834322751125228 3.62596067464540984 259.63276790431280008
v -257.6834322751125228 3.62596067464552528 -259.63276790431280008
v -257.6834322751125228 -3.62596067464540984 -259.63276790431280008
v -257.6834322751125228 -3.62596067464540984 -259.63276790431280008
v -257.6834322751125228 3.62596067464552528 -259.63276790431280008
v 257.6834322751125228 3.62596067464552528 -259.63276790431280008
v 257.6834322751125228 -3.62596067464540984 -259.63276790431280008
v 257.6834322751125228 -3.62596067464540984 -259.63276790431280008
v 257.6834322751125228 3.62596067464552528 -259.63276790431280008
v 257.6834322751125228 3.62596067464540984 259.63276790431280008
v 257.6834322751125228 -3.62596067464552528 259.63276790431280008
v 257.6834322751125228 -3.62596067464552528 259.63276790431280008
v 257.6834322751125228 3.62596067464540984 259.63276790431280008
v -257.6834322751125228 3.62596067464540984 259.63276790431280008
v -257.6834322751125228 -3.62596067464552528 259.63276790431280008
v -257.6834322751125228 -3.62596067464540984 -259.63276790431280008
v 257.6834322751125228 -3.62596067464540984 -259.63276790431280008
v 257.6834322751125228 -3.62596067464552528 259.63276790431280008
v -257.6834322751125228 -3.62596067464552528 259.63276790431280008
v 257.6834322751125228 3.62596067464552528 -259.63276790431280008
v -257.6834322751125228 3.62596067464552528 -259.63276790431280008
v -257.6834322751125228 3.62596067464540984 259.63276790431280008
v 257.6834322751125228 3.62596067464540984 259.63276790431280008
# 24 vertices

vn -1 0 0
vn -1 0 0
vn -1 0 0
vn -1 0 0
vn 0 2.220446049250313E-16 -1
vn 0 2.220446049250313E-16 -1
vn 0 2.220446049250313E-16 -1
vn 0 2.220446049250313E-16 -1
vn 1 0 0
vn 1 0 0
vn 1 0 0
vn 1 0 0
vn 0 -2.220446049250313E-16 1
vn 0 -2.220446049250313E-16 1
vn 0 -2.220446049250313E-16 1
vn 0 -2.220446049250313E-16 1
vn 0 -1 -2.220446049250313E-16
vn 0 -1 -2.220446049250313E-16
vn 0 -1 -2.220446049250313E-16
vn 0 -1 -2.220446049250313E-16
vn 0 1 2.220446049250313E-16
vn 0 1 2.220446049250313E-16
vn 0 1 2.220446049250313E-16
vn 0 1 2.220446049250313E-16
# 24 vertex normals

g Object_2
usemtl Material_001
s 1
f 1//1 2//2 3//3
f 1//1 3//3 4//4
f 5//5 6//6 7//7
f 5//5 7//7 8//8
f 9//9 10//10 11//11
f 9//9 11//11 12//12
f 13//13 14//14 15//15
f 13//13 15//15 16//16
f 17//17 18//18 19//19
f 17//17 19//19 20//20
f 21//21 22//22 23//23
f 21//21 23//23 24//24
#12 polygons


#
# object Object_3
#

v 260.44942737723602024 -3.52166549360804824 -259.46086970162411944
v -258.81609055512058144 -3.52166549360804824 -259.46086970162411944
v -258.81609055512058144 311.77307160884316768 -259.46086970162406256
v 260.44942737723602024 311.77307160884316768 -259.46086970162406256
v -258.81609055512058144 -3.52166549360804824 -259.46086970162411944
v -258.81609055512058144 -3.5216654936080496 -253.58755001712154352
v -258.81609055512058144 311.77307160884316768 -253.58755001712148672
v -258.81609055512058144 311.77307160884316768 -259.46086970162406256
v -258.81609055512058144 -3.5216654936080496 -253.58755001712154352
v 260.44942737723602024 -3.5216654936080496 -253.58755001712154352
v 260.44942737723602024 311.77307160884316768 -253.58755001712148672
v -258.81609055512058144 311.77307160884316768 -253.58755001712148672
v 260.44942737723602024 -3.5216654936080496 -253.58755001712154352
v 260.44942737723602024 -3.52166549360804824 -259.46086970162411944
v 260.44942737723602024 311.77307160884316768 -259.46086970162406256
v 260.44942737723602024 311.77307160884316768 -253.58755001712148672
v -258.81609055512058144 -3.52166549360804824 -259.46086970162411944
v 260.44942737723602024 -3.52166549360804824 -259.46086970162411944
v 260.44942737723602024 -3.5216654936080496 -253.58755001712154352
v -258.81609055512058144 -3.5216654936080496 -253.58755001712154352
v -258.81609055512058144 311.77307160884316768 -253.58755001712148672
v 260.44942737723602024 311.77307160884316768 -253.58755001712148672
v 260.44942737723602024 311.77307160884316768 -259.46086970162406256
v -258.81609055512058144 311.77307160884316768 -259.46086970162406256
# 24 vertices

vn 0 2.220446049250313E-16 -1
vn 0 2.220446049250313E-16 -1
vn 0 2.220446049250313E-16 -1
vn 0 2.220446049250313E-16 -1
vn -1 0 0
vn -1 0 0
vn -1 0 0
vn -1 0 0
vn 0 -2.220446049250313E-16 1
vn 0 -2.220446049250313E-16 1
vn 0 -2.220446049250313E-16 1
vn 0 -2.220446049250313E-16 1
vn 1 0 0
vn 1 0 0
vn 1 0 0
vn 1 0 0
vn 0 -1 -2.220446049250313E-16
vn 0 -1 -2.220446049250313E-16
vn 0 -1 -2.220446049250313E-16
vn 0 -1 -2.220446049250313E-16
vn 0 1 2.220446049250313E-16
vn 0 1 2.220446049250313E-16
vn 0 1 2.220446049250313E-16
vn 0 1 2.220446049250313E-16
# 24 vertex normals

g Object_3
usemtl Material_001
s 2
f 25//25 26//26 27//27
f 25//25 27//27 28//28
f 29//29 30//30 31//31
f 29//29 31//31 32//32
f 33//33 34//34 35//35
f 33//33 35//35 36//36
f 37//37 38//38 39//39
f 37//37 39//39 40//40
f 41//41 42//42 43//43
f 41//41 43//43 44//44
f 45//45 46//46 47//47
f 45//45 47//47 48//48
#12 polygons


#
# object Object_4
#

v -257.45631427748776336 -3.52166549360816376 259.63276790431280008
v -257.45631427748776336 -3.52166549360804824 -259.63276790431280008
v -257.45631427748776336 311.77307160884316768 -259.6327679043127432
v -257.45631427748776336 311.77307160884305408 259.63276790431285688
v -257.45631427748776336 -3.52166549360804824 -259.63276790431280008
v -263.32965183825933764 -3.52166549360804824 -259.63276790431280008
v -263.32965183825933764 311.77307160884316768 -259.6327679043127432
v -257.45631427748776336 311.77307160884316768 -259.6327679043127432
v -263.32965183825933764 -3.52166549360804824 -259.63276790431280008
v -263.32965183825933764 -3.52166549360816376 259.63276790431280008
v -263.32965183825933764 311.77307160884305408 259.63276790431285688
v -263.32965183825933764 311.77307160884316768 -259.6327679043127432
v -263.32965183825933764 -3.52166549360816376 259.63276790431280008
v -257.45631427748776336 -3.52166549360816376 259.63276790431280008
v -257.45631427748776336 311.77307160884305408 259.63276790431285688
v -263.32965183825933764 311.77307160884305408 259.63276790431285688
v -257.45631427748776336 -3.52166549360804824 -259.63276790431280008
v -257.45631427748776336 -3.52166549360816376 259.63276790431280008
v -263.32965183825933764 -3.52166549360816376 259.63276790431280008
v -263.32965183825933764 -3.52166549360804824 -259.63276790431280008
v -263.32965183825933764 311.77307160884316768 -259.6327679043127432
v -263.32965183825933764 311.77307160884305408 259.63276790431285688
v -257.45631427748776336 311.77307160884305408 259.63276790431285688
v -257.45631427748776336 311.77307160884316768 -259.6327679043127432
# 24 vertices

vn 1 0 0
vn 1 0 0
vn 1 0 0
vn 1 0 0
vn 0 2.220446049250313E-16 -1
vn 0 2.220446049250313E-16 -1
vn 0 2.220446049250313E-16 -1
vn 0 2.220446049250313E-16 -1
vn -1 0 0
vn -1 0 0
vn -1 0 0
vn -1 0 0
vn 0 -2.220446049250313E-16 1
vn 0 -2.220446049250313E-16 1
vn 0 -2.220446049250313E-16 1
vn 0 -2.220446049250313E-16 1
vn 0 -1 -2.220446049250313E-16
vn 0 -1 -2.220446049250313E-16
vn 0 -1 -2.220446049250313E-16
vn 0 -1 -2.220446049250313E-16
vn 0 1 2.220446049250313E-16
vn 0 1 2.220446049250313E-16
vn 0 1 2.220446049250313E-16
vn 0 1 2.220446049250313E-16
# 24 vertex normals

g Object_4
usemtl Material_003
s 4
f 49//49 50//50 51//51
f 49//49 51//51 52//52
f 53//53 54//54 55//55
f 53//53 55//55 56//56
f 57//57 58//58 59//59
f 57//57 59//59 60//60
f 61//61 62//62 63//63
f 61//61 63//63 64//64
f 65//65 66//66 67//67
f 65//65 67//67 68//68
f 69//69 70//70 71//71
f 69//69 71//71 72//72
#12 polygons


#
# object Object_5
#

v 263.4791153233550176 -3.52166549360816376 259.63276790431280008
v 263.4791153233550176 -3.52166549360804824 -259.63276790431280008
v 263.4791153233550176 311.77307160884316768 -259.6327679043127432
v 263.4791153233550176 311.77307160884305408 259.63276790431285688
v 263.4791153233550176 -3.52166549360804824 -259.63276790431280008
v 257.60575988631444488 -3.52166549360804824 -259.63276790431280008
v 257.60575988631444488 311.77307160884316768 -259.6327679043127432
v 263.4791153233550176 311.77307160884316768 -259.6327679043127432
v 257.60575988631444488 -3.52166549360804824 -259.63276790431280008
v 257.60575988631444488 -3.52166549360816376 259.63276790431280008
v 257.60575988631444488 311.77307160884305408 259.63276790431285688
v 257.60575988631444488 311.77307160884316768 -259.6327679043127432
v 257.60575988631444488 -3.52166549360816376 259.63276790431280008
v 263.4791153233550176 -3.52166549360816376 259.63276790431280008
v 263.4791153233550176 311.77307160884305408 259.63276790431285688
v 257.60575988631444488 311.77307160884305408 259.63276790431285688
v 263.4791153233550176 -3.52166549360804824 -259.63276790431280008
v 263.4791153233550176 -3.52166549360816376 259.63276790431280008
v 257.60575988631444488 -3.52166549360816376 259.63276790431280008
v 257.60575988631444488 -3.52166549360804824 -259.63276790431280008
v 257.60575988631444488 311.77307160884316768 -259.6327679043127432
v 257.60575988631444488 311.77307160884305408 259.63276790431285688
v 263.4791153233550176 311.77307160884305408 259.63276790431285688
v 263.4791153233550176 311.77307160884316768 -259.6327679043127432
# 24 vertices

vn 1 0 0
vn 1 0 0
vn 1 0 0
vn 1 0 0
vn 0 2.220446049250313E-16 -1
vn 0 2.220446049250313E-16 -1
vn 0 2.220446049250313E-16 -1
vn 0 2.220446049250313E-16 -1
vn -1 0 0
vn -1 0 0
vn -1 0 0
vn -1 0 0
vn 0 -2.220446049250313E-16 1
vn 0 -2.220446049250313E-16 1
vn 0 -2.220446049250313E-16 1
vn 0 -2.220446049250313E-16 1
vn 0 -1 -2.220446049250313E-16
vn 0 -1 -2.220446049250313E-16
vn 0 -1 -2.220446049250313E-16
vn 0 -1 -2.220446049250313E-16
vn 0 1 2.220446049250313E-16
vn 0 1 2.220446049250313E-16
vn 0 1 2.220446049250313E-16
vn 0 1 2.220446049250313E-16
# 24 vertex normals

g Object_5
usemtl Material_001
s 8
f 73//73 74//74 75//75
f 73//73 75//75 76//76
f 77//77 78//78 79//79
f 77//77 79//79 80//80
f 81//81 82//82 83//83
f 81//81 83//83 84//84
f 85//85 86//86 87//87
f 85//85 87//87 88//88
f 89//89 90//90 91//91
f 89//89 91//91 92//92
f 93//93 94//94 95//95
f 93//93 95//95 96//96
#12 polygons


#
# object Object_6
#

v 260.44942737723602024 -3.5216654936081624 253.36999582341093176
v -258.81609055512058144 -3.5216654936081624 253.37003157594892856
v -258.81609055512058144 311.77307160884305408 253.37003157594898536
v 260.44942737723602024 311.77307160884305408 253.36999582341098856
v -258.81609055512058144 -3.5216654936081624 253.37003157594892856
v -258.81609055512058144 -3.52166549360816376 259.24335126045150444
v -258.81609055512058144 311.77307160884305408 259.24335126045156132
v -258.81609055512058144 311.77307160884305408 253.37003157594898536
v -258.81609055512058144 -3.52166549360816376 259.24335126045150444
v 260.44942737723602024 -3.52166549360816376 259.24331550791350764
v 260.44942737723602024 311.77307160884305408 259.24331550791356448
v -258.81609055512058144 311.77307160884305408 259.24335126045156132
v 260.44942737723602024 -3.52166549360816376 259.24331550791350764
v 260.44942737723602024 -3.5216654936081624 253.36999582341093176
v 260.44942737723602024 311.77307160884305408 253.36999582341098856
v 260.44942737723602024 311.77307160884305408 259.24331550791356448
v -258.81609055512058144 -3.5216654936081624 253.37003157594892856
v 260.44942737723602024 -3.5216654936081624 253.36999582341093176
v 260.44942737723602024 -3.52166549360816376 259.24331550791350764
v -258.81609055512058144 -3.52166549360816376 259.24335126045150444
v -258.81609055512058144 311.77307160884305408 259.24335126045156132
v 260.44942737723602024 311.77307160884305408 259.24331550791356448
v 260.44942737723602024 311.77307160884305408 253.36999582341098856
v -258.81609055512058144 311.77307160884305408 253.37003157594898536
# 24 vertices

vn 0 2.220446049250313E-16 -1
vn 0 2.220446049250313E-16 -1
vn 0 2.220446049250313E-16 -1
vn 0 2.220446049250313E-16 -1
vn -1 0 0
vn -1 0 0
vn -1 0 0
vn -1 0 0
vn 0 -2.220446049250313E-16 1
vn 0 -2.220446049250313E-16 1
vn 0 -2.220446049250313E-16 1
vn 0 -2.220446049250313E-16 1
vn 1 0 0
vn 1 0 0
vn 1 0 0
vn 1 0 0
vn 0 -1 -2.220446049250313E-16
vn 0 -1 -2.220446049250313E-16
vn 0 -1 -2.220446049250313E-16
vn 0 -1 -2.220446049250313E-16
vn 0 1 2.220446049250313E-16
vn 0 1 2.220446049250313E-16
vn 0 1 2.220446049250313E-16
vn 0 1 2.220446049250313E-16
# 24 vertex normals

g Object_6
usemtl Material_001
s 16
f 97//97 98//98 99//99
f 97//97 99//99 100//100
f 101//101 102//102 103//103
f 101//101 103//103 104//104
f 105//105 106//106 107//107
f 105//105 107//107 108//108
f 109//109 110//110 111//111
f 109//109 111//111 112//112
f 113//113 114//114 115//115
f 113//113 115//115 116//116
f 117//117 118//118 119//119
f 117//117 119//119 120//120
#12 polygons


#
# object Object_7
#

v -257.6834322751125228 304.47697967475727408 259.63276790431285688
v -257.6834322751125228 311.72888147187899216 259.63276790431285688
v -257.6834322751125228 311.72888147187910592 -259.6327679043127432
v -257.6834322751125228 304.47697967475738776 -259.6327679043127432
v -257.6834322751125228 304.47697967475738776 -259.6327679043127432
v -257.6834322751125228 311.72888147187910592 -259.6327679043127432
v 257.6834322751125228 311.72888147187910592 -259.6327679043127432
v 257.6834322751125228 304.47697967475738776 -259.6327679043127432
v 257.6834322751125228 304.47697967475738776 -259.6327679043127432
v 257.6834322751125228 311.72888147187910592 -259.6327679043127432
v 257.6834322751125228 311.72888147187899216 259.63276790431285688
v 257.6834322751125228 304.47697967475727408 259.63276790431285688
v 257.6834322751125228 304.47697967475727408 259.63276790431285688
v 257.6834322751125228 311.72888147187899216 259.63276790431285688
v -257.6834322751125228 311.72888147187899216 259.63276790431285688
v -257.6834322751125228 304.47697967475727408 259.63276790431285688
v -257.6834322751125228 304.47697967475738776 -259.6327679043127432
v 257.6834322751125228 304.47697967475738776 -259.6327679043127432
v 257.6834322751125228 304.47697967475727408 259.63276790431285688
v -257.6834322751125228 304.47697967475727408 259.63276790431285688
v 257.6834322751125228 311.72888147187910592 -259.6327679043127432
v -257.6834322751125228 311.72888147187910592 -259.6327679043127432
v -257.6834322751125228 311.72888147187899216 259.63276790431285688
v 257.6834322751125228 311.72888147187899216 259.63276790431285688
# 24 vertices

vn -1 0 0
vn -1 0 0
vn -1 0 0
vn -1 0 0
vn 0 2.220446049250313E-16 -1
vn 0 2.220446049250313E-16 -1
vn 0 2.220446049250313E-16 -1
vn 0 2.220446049250313E-16 -1
vn 1 0 0
vn 1 0 0
vn 1 0 0
vn 1 0 0
vn 0 -2.220446049250313E-16 1
vn 0 -2.220446049250313E-16 1
vn 0 -2.220446049250313E-16 1
vn 0 -2.220446049250313E-16 1
vn 0 -1 -2.220446049250313E-16
vn 0 -1 -2.220446049250313E-16
vn 0 -1 -2.220446049250313E-16
vn 0 -1 -2.220446049250313E-16
vn 0 1 2.220446049250313E-16
vn 0 1 2.220446049250313E-16
vn 0 1 2.220446049250313E-16
vn 0 1 2.220446049250313E-16
# 24 vertex normals

g Object_7
usemtl Material_001
s 32
f 121//121 122//122 123//123
f 121//121 123//123 124//124
f 125//125 126//126 127//127
f 125//125 127//127 128//128
f 129//129 130//130 131//131
f 129//129 131//131 132//132
f 133//133 134//134 135//135
f 133//133 135//135 136//136
f 137//137 138//138 139//139
f 137//137 139//139 140//140
f 141//141 142//142 143//143
f 141//141 143//143 144//144
#12 polygons

